<svg xmlns="http://www.w3.org/2000/svg" width="24" height="24" viewBox="0 0 24 24" fill="currentColor">
  <path d="M12 0C5.37 0 0 5.37 0 12c0 5.31 3.44 9.8 8.21 11.39.6.11.79-.26.79-.58 0-.29-.01-1.24-.02-2.25-3.34.73-4.04-1.42-4.04-1.42-.55-1.39-1.33-1.76-1.33-1.76-1.09-.74.08-.73.08-.73 1.2.09 1.84 1.24 1.84 1.24 1.07 1.83 2.8 1.3 3.48 1 .11-.78.42-1.3.76-1.6-2.67-.3-5.47-1.33-5.47-5.93 0-1.31.47-2.38 1.24-3.22-.12-.3-.54-1.52.12-3.18 0 0 1.01-.32 3.3 1.23a11.5 11.5 0 0 1 6.02 0c2.29-1.55 3.3-1.23 3.3-1.23.66 1.66.24 2.88.12 3.18.77.84 1.24 1.91 1.24 3.22 0 4.61-2.81 5.63-5.48 5.93.43.37.81 1.1.81 2.22 0 1.6-.01 2.89-.01 3.28 0 .32.19.7.8.58A12.01 12.01 0 0 0 24 12c0-6.63-5.37-12-12-12Z"/>
</svg>
