<svg xmlns="http://www.w3.org/2000/svg" width="24" height="24" viewBox="0 0 24 24" fill="currentColor">
  <path d="M23.95 4.57a10 10 0 0 1-2.82.77 4.96 4.96 0 0 0 2.16-2.72c-.95.56-2 .96-3.12 1.19a4.92 4.92 0 0 0-8.39 4.48A13.94 13.94 0 0 1 1.64 3.16a4.82 4.82 0 0 0-.67 2.47c0 1.7.87 3.2 2.19 4.08a4.9 4.9 0 0 1-2.23-.62v.06a4.93 4.93 0 0 0 3.95 4.83 4.96 4.96 0 0 1-2.22.08 4.93 4.93 0 0 0 4.6 3.42A9.87 9.87 0 0 1 0 19.54a13.9 13.9 0 0 0 7.55 2.21c9.06 0 14.01-7.5 14.01-14v-.64c.96-.7 1.79-1.56 2.45-2.55l-.06.01Z"/>
</svg>
