<svg xmlns="http://www.w3.org/2000/svg" width="24" height="24" viewBox="0 0 24 24" fill="currentColor">
  <path d="M20 12v8H4v-8H2V8a2 2 0 0 1 2-2h4c-.5-.47-.81-1.17-.81-1.95A2.95 2.95 0 0 1 10.14 1c.76 0 1.44.3 1.96.79A3 3 0 0 1 12 2c0-.21-.04-.42-.1-.62a2.95 2.95 0 0 1 2.05-.43c1.5.14 2.64 1.4 2.64 2.9 0 .79-.31 1.5-.81 1.97h4.22a2 2 0 0 1 2 2v4h-2ZM11 8H7.5A1.5 1.5 0 0 1 6 6.5c0-.83.67-1.5 1.5-1.5.44 0 .85.19 1.13.51.56.64 1.3 1.13 2.37 2.49Zm2 0h3.5A1.5 1.5 0 0 0 18 6.5c0-.83-.67-1.5-1.5-1.5-.44 0-.85.19-1.13.51-.56.64-1.3 1.13-2.37 2.49Z"/>
</svg>
