<svg xmlns="http://www.w3.org/2000/svg" width="24" height="24" viewBox="0 0 24 24" fill="currentColor">
  <path d="M12.71 2.29a6 6 0 0 1 8.49.53l.51.51a6 6 0 0 1 .53 8.49 1 1 0 0 1-1.49-1.34 4 4 0 0 0-.32-5.3l-.51-.51a4 4 0 0 0-5.66 0l-3 3a4 4 0 0 0 0 5.66 1 1 0 1 1-1.42 1.42 6 6 0 0 1 0-8.49l3-3Z"/>
  <path d="M11.29 21.71a6 6 0 0 1-8.49-.53l-.51-.51a6 6 0 0 1-.53-8.49 1 1 0 0 1 1.49 1.34 4 4 0 0 0 .32 5.3l.51.51a4 4 0 0 0 5.66 0l3-3a4 4 0 0 0 0-5.66 1 1 0 1 1 1.42-1.42 6 6 0 0 1 0 8.49l-3 3Z"/>
</svg>
