<svg xmlns="http://www.w3.org/2000/svg" width="24" height="24" viewBox="0 0 24 24" fill="currentColor">
  <path fill-rule="evenodd" clip-rule="evenodd" d="M12 8.5a3.5 3.5 0 1 0 0 7 3.5 3.5 0 0 0 0-7ZM10.5 12a1.5 1.5 0 1 1 3 0 1.5 1.5 0 0 1-3 0Z"/>
  <path fill-rule="evenodd" clip-rule="evenodd" d="M10.29 3.86a2.5 2.5 0 0 1 3.42 0l.7.66a.5.5 0 0 0 .4.12l.96-.13a2.5 2.5 0 0 1 2.42 1.4l.44.87a.5.5 0 0 0 .3.26l.92.27a2.5 2.5 0 0 1 1.5 2.96l-.27.93a.5.5 0 0 0 .08.42l.56.78a2.5 2.5 0 0 1 0 2.98l-.56.78a.5.5 0 0 0-.08.42l.27.93a2.5 2.5 0 0 1-1.5 2.96l-.92.27a.5.5 0 0 0-.3.26l-.44.87a2.5 2.5 0 0 1-2.42 1.4l-.96-.13a.5.5 0 0 0-.4.12l-.7.66a2.5 2.5 0 0 1-3.42 0l-.7-.66a.5.5 0 0 0-.4-.12l-.96.13a2.5 2.5 0 0 1-2.42-1.4l-.44-.87a.5.5 0 0 0-.3-.26l-.92-.27a2.5 2.5 0 0 1-1.5-2.96l.27-.93a.5.5 0 0 0-.08-.42l-.56-.78a2.5 2.5 0 0 1 0-2.98l.56-.78a.5.5 0 0 0 .08-.42l-.27-.93a2.5 2.5 0 0 1 1.5-2.96l.92-.27a.5.5 0 0 0 .3-.26l.44-.87a2.5 2.5 0 0 1 2.42-1.4l.96.13a.5.5 0 0 0 .4-.12l.7-.66Zm2.05 1.38a.5.5 0 0 0-.68 0l-.7.66a2.5 2.5 0 0 1-2 .62l-.96-.13a.5.5 0 0 0-.48.28l-.44.87a2.5 2.5 0 0 1-1.5 1.32l-.92.27a.5.5 0 0 0-.3.59l.27.93a2.5 2.5 0 0 1-.38 2.1l-.56.78a.5.5 0 0 0 0 .6l.56.78a2.5 2.5 0 0 1 .38 2.1l-.27.93a.5.5 0 0 0 .3.59l.92.27a2.5 2.5 0 0 1 1.5 1.32l.44.87a.5.5 0 0 0 .48.28l.96-.13a2.5 2.5 0 0 1 2 .62l.7.66a.5.5 0 0 0 .68 0l.7-.66a2.5 2.5 0 0 1 2-.62l.96.13a.5.5 0 0 0 .48-.28l.44-.87a2.5 2.5 0 0 1 1.5-1.32l.92-.27a.5.5 0 0 0 .3-.59l-.27-.93a2.5 2.5 0 0 1 .38-2.1l.56-.78a.5.5 0 0 0 0-.6l-.56-.78a2.5 2.5 0 0 1-.38-2.1l.27-.93a.5.5 0 0 0-.3-.59l-.92-.27a2.5 2.5 0 0 1-1.5-1.32l-.44-.87a.5.5 0 0 0-.48-.28l-.96.13a2.5 2.5 0 0 1-2-.62l-.7-.66Z"/>
</svg>
