<svg xmlns="http://www.w3.org/2000/svg" width="24" height="24" viewBox="0 0 24 24" fill="currentColor">
  <path d="M3.53 2.47a.75.75 0 0 0-1.06 1.06l18 18a.75.75 0 1 0 1.06-1.06l-18-18Z"/>
  <path d="M22.68 11.5C21.5 9.5 17.1 4 12 4a9.4 9.4 0 0 0-4.13 1.02l1.55 1.55A7.4 7.4 0 0 1 12 6c4.24 0 7.82 3.95 9 5.5-.5.67-1.16 1.46-2 2.29l1.45 1.44c1.12-1.12 1.93-2.25 2.23-2.73.12-.18.12-.41 0-.6ZM12 16a4 4 0 0 1-4-4c0-.5.1-.97.28-1.4l5.12 5.12A4 4 0 0 1 12 16Z"/>
  <path d="M1.32 11.9c.3.48 1.11 1.61 2.23 2.73l1.45-1.44c-.84-.83-1.5-1.62-2-2.29C4.18 9.95 7.76 6 12 6c.87 0 1.74.17 2.58.43L16 5.02A9.4 9.4 0 0 0 12 4C6.9 4 2.5 9.5 1.32 11.5a.76.76 0 0 0 0 .4Z"/>
</svg>
